<svg xmlns="http://www.w3.org/2000/svg" viewBox="0 0 24 24" width="24" height="24" fill="none" stroke="#c9a869" stroke-width="1.6" stroke-linecap="round" stroke-linejoin="round">
  <path d="M20.5 11.5a8.38 8.38 0 0 1-.9 3.8 8.5 8.5 0 0 1-7.6 4.7 8.38 8.38 0 0 1-3.8-.9L3.5 20.5l1.4-4.7a8.38 8.38 0 0 1-.9-3.8 8.5 8.5 0 0 1 4.7-7.6 8.38 8.38 0 0 1 3.8-.9h.3a8.48 8.48 0 0 1 8 8v.5z"/>
  <path d="M8.3 9.6c.2-.5.5-.5.8-.5h.6c.2 0 .4 0 .6.4.2.5.6 1.5.7 1.6.1.1.1.3 0 .5-.1.2-.2.3-.3.5-.2.2-.3.3-.1.6.6 1 1.3 1.6 2.3 2.1.2.1.4.1.5-.1.2-.2.6-.7.8-1 .2-.2.3-.2.5-.1.2.1 1.5.7 1.7.8.2.1.4.2.4.3 0 .2 0 .9-.3 1.4-.3.5-1.5 1-2.1 1-1.9.1-3.6-.7-4.9-1.9-1.1-1-1.9-2.3-2.3-3.7-.1-.5-.1-1 .1-1.4.1-.2.2-.4.3-.6z"/>
</svg>
